<?xml version="1.0" standalone="no"?>
<!DOCTYPE svg PUBLIC "-//W3C//DTD SVG 20010904//EN"
 "http://www.w3.org/TR/2001/REC-SVG-20010904/DTD/svg10.dtd">
<svg version="1.0" xmlns="http://www.w3.org/2000/svg"
 width="1181.000000pt" height="1181.000000pt" viewBox="0 0 1181.000000 1181.000000"
 preserveAspectRatio="xMidYMid meet">

<g transform="translate(0.000000,1181.000000) scale(0.100000,-0.100000)"
fill="#000000" stroke="none">
<path d="M5575 11019 c-1220 -81 -2365 -590 -3243 -1444 -418 -406 -768 -886
-1021 -1400 -285 -577 -450 -1171 -513 -1835 -16 -177 -16 -708 1 -875 108
-1096 494 -2028 1181 -2856 129 -155 467 -493 620 -620 819 -680 1745 -1071
2810 -1185 232 -25 737 -25 980 0 661 67 1229 231 1810 522 534 268 977 593
1392 1022 679 702 1144 1588 1337 2547 69 346 95 620 95 1010 0 304 -9 453
-45 715 -120 876 -480 1725 -1029 2430 -844 1084 -2080 1781 -3450 1945 -279
33 -646 43 -925 24z m905 -423 c652 -89 1179 -260 1720 -560 577 -319 1095
-773 1495 -1311 484 -649 784 -1390 897 -2215 21 -151 23 -203 23 -605 0 -491
-8 -586 -80 -940 -194 -963 -684 -1839 -1403 -2508 -732 -683 -1621 -1104
-2617 -1238 -131 -18 -226 -23 -522 -26 -382 -5 -532 2 -778 38 -1546 227
-2885 1212 -3566 2624 -235 488 -373 967 -440 1526 -18 151 -22 241 -23 504
-1 409 23 652 100 1015 256 1197 978 2257 2004 2941 334 223 728 415 1115 546
324 109 741 196 1060 223 72 5 150 12 175 14 25 2 182 2 350 0 256 -3 335 -7
490 -28z"/>
<path d="M5691 10559 c-949 -41 -1878 -381 -2628 -961 -319 -247 -646 -579
-894 -908 -517 -687 -835 -1531 -909 -2410 -21 -251 -12 -686 20 -950 113
-915 509 -1800 1115 -2490 123 -139 394 -404 525 -512 723 -599 1573 -958
2500 -1058 271 -29 667 -29 956 0 872 87 1711 425 2404 969 201 158 460 403
634 601 695 788 1108 1825 1144 2873 20 574 -49 1099 -210 1597 -231 717 -591
1316 -1108 1844 -503 514 -1025 856 -1710 1119 -324 124 -688 212 -1085 262
-97 12 -556 39 -575 33 -3 0 -83 -4 -179 -9z m-217 -822 c33 -49 47 -120 71
-346 35 -323 69 -600 111 -895 20 -136 33 -258 30 -270 -10 -40 -90 -61 -119
-32 -9 10 -17 49 -21 113 -4 54 -18 181 -32 283 -40 290 -52 401 -69 600 -17
215 -30 330 -51 453 -17 100 -11 117 37 117 19 0 34 -8 43 -23z m412 -302 c17
-11 23 -33 33 -102 17 -132 41 -466 47 -653 2 -91 9 -222 16 -292 10 -114 9
-129 -6 -152 -13 -21 -25 -26 -55 -26 -62 0 -65 7 -72 244 -7 218 -30 588 -50
804 -12 138 -9 164 23 180 31 15 40 14 64 -3z m1784 -81 c14 -36 -6 -78 -165
-344 -261 -440 -341 -570 -472 -768 -145 -218 -189 -272 -221 -272 -39 0 -72
19 -72 40 0 11 95 163 211 338 235 352 314 482 478 782 62 113 123 215 137
228 16 14 38 22 60 22 28 0 36 -5 44 -26z m-3586 -40 c32 -12 272 -365 458
-674 136 -226 320 -524 365 -589 23 -35 43 -74 43 -86 0 -24 -57 -88 -74 -82
-14 5 -147 212 -318 497 -78 129 -235 377 -350 551 -114 173 -208 324 -208
334 0 40 43 65 84 49z m2944 -71 c2 -17 -8 -58 -23 -92 -69 -164 -345 -954
-369 -1053 -7 -31 -24 -35 -75 -17 -18 6 -33 20 -37 33 -13 54 369 1127 418
1168 17 15 24 16 51 5 25 -10 33 -20 35 -44z m-563 -135 c20 -19 5 -160 -54
-513 -72 -430 -67 -404 -92 -414 -30 -11 -78 -1 -88 18 -10 17 28 283 94 671
33 193 39 217 62 238 25 23 54 23 78 0z m-1552 -268 c15 -30 67 -149 116 -265
49 -115 114 -264 145 -331 31 -66 56 -126 56 -133 0 -23 -49 -61 -77 -61 -27
0 -32 8 -92 143 -291 652 -290 650 -255 688 12 13 28 19 48 17 26 -3 35 -11
59 -58z m2947 -12 c34 -37 32 -41 -105 -198 -130 -150 -338 -406 -494 -610
-150 -196 -179 -230 -197 -230 -14 0 -74 48 -74 60 0 11 198 287 282 394 165
208 267 329 390 464 139 152 158 163 198 120z m-3842 -115 c11 -10 183 -227
383 -483 l362 -464 -34 -28 c-57 -48 -69 -42 -175 97 -126 166 -577 740 -611
778 -18 20 -33 47 -33 59 0 51 66 76 108 41z m4676 -159 c25 -24 19 -51 -16
-83 -18 -16 -132 -107 -253 -203 -121 -96 -290 -230 -375 -299 -85 -69 -222
-172 -305 -229 -82 -57 -188 -132 -235 -167 -47 -35 -95 -63 -107 -63 -26 0
-63 44 -63 76 0 18 31 44 157 131 253 174 682 502 1000 765 45 38 93 72 105
78 36 14 75 12 92 -6z m-5239 -129 c17 -12 122 -106 233 -209 112 -103 341
-309 508 -458 167 -149 304 -273 304 -275 0 -16 -46 -83 -56 -83 -26 0 -166
103 -256 188 -51 48 -138 128 -193 176 -55 49 -190 173 -300 276 -110 103
-233 215 -272 249 -101 86 -110 105 -68 147 29 29 51 26 100 -11z m2746 -495
c230 -26 538 -163 766 -339 124 -95 265 -232 319 -307 151 -211 262 -628 239
-898 -6 -75 -10 -89 -30 -102 -17 -11 -29 -12 -49 -5 -26 10 -26 12 -26 105 0
108 -39 356 -76 483 -53 182 -146 335 -299 488 -301 301 -701 469 -1115 467
-223 -1 -572 -75 -750 -159 -63 -30 -92 -53 -183 -147 -130 -133 -253 -277
-312 -366 -160 -241 -234 -546 -201 -834 10 -88 6 -96 -55 -96 -56 0 -69 22
-78 137 -14 187 12 355 86 553 143 384 403 699 701 849 162 82 415 146 692
174 77 8 290 6 371 -3z m-2441 -354 c217 -107 440 -214 495 -238 115 -51 137
-75 114 -123 -28 -57 -26 -58 -340 93 -641 307 -747 360 -764 386 -31 48 6 91
70 81 17 -3 208 -92 425 -199z m4322 87 c44 -39 16 -68 -172 -183 -74 -46
-183 -114 -242 -151 -59 -38 -112 -69 -117 -69 -43 0 -68 92 -33 122 9 8 116
73 237 143 121 70 227 134 235 141 20 19 70 18 92 -3z m-5052 -173 c298 -83
1195 -382 1248 -416 46 -30 14 -94 -48 -94 -23 0 -190 52 -422 130 -211 72
-518 169 -682 216 -302 86 -421 130 -432 158 -16 42 24 91 66 81 8 -2 130 -36
270 -75z m6033 -12 c46 -54 14 -75 -245 -158 -123 -39 -279 -90 -348 -112 -69
-22 -210 -74 -315 -115 -232 -91 -479 -183 -492 -183 -6 0 -16 21 -23 46 -11
38 -11 47 1 59 28 26 543 221 929 350 218 73 405 135 415 138 30 7 58 -2 78
-25z m-5663 -448 c421 -104 780 -197 799 -205 27 -13 32 -20 27 -38 -3 -12 -6
-28 -6 -34 0 -7 -10 -19 -23 -28 -21 -14 -53 -7 -437 89 -830 208 -1135 288
-1157 302 -13 8 -23 25 -23 37 0 27 26 67 43 67 7 0 356 -85 777 -190z m5620
-140 c6 -12 10 -33 8 -48 -2 -21 -11 -30 -40 -39 -52 -17 -567 -90 -728 -103
-74 -6 -219 -25 -322 -41 -199 -32 -211 -31 -242 13 -9 12 -16 32 -16 44 0 18
10 23 78 38 104 22 307 49 662 86 291 30 501 58 509 66 2 2 21 4 42 4 28 0 41
-5 49 -20z m-4906 -272 c22 1 45 -3 53 -9 22 -19 16 -67 -13 -96 l-25 -25
-147 6 c-324 14 -373 18 -388 33 -19 20 -18 68 3 89 16 16 37 16 248 9 126 -5
248 -8 269 -7z m5418 -202 c25 -12 37 -61 19 -79 -30 -30 -165 -34 -983 -29
-816 5 -819 5 -833 26 -18 25 -19 68 -3 84 18 18 1765 16 1800 -2z m-5376 -92
c12 -49 -8 -71 -79 -83 -227 -40 -239 -40 -1047 -71 -146 -5 -340 -15 -432
-22 l-167 -12 -26 24 c-33 31 -34 77 -2 89 47 18 793 60 1087 62 118 0 232 7
315 19 72 9 178 18 237 19 l108 1 6 -26z m1534 -518 c159 -31 285 -67 585
-167 325 -109 524 -164 735 -203 286 -54 593 -76 796 -57 271 25 395 59 708
193 232 100 287 114 306 79 17 -32 9 -64 -20 -78 -61 -31 -426 -178 -525 -212
-241 -83 -379 -102 -671 -90 -518 22 -808 78 -1338 261 -449 154 -691 200
-1048 197 -128 -1 -183 2 -193 11 -20 17 -19 55 2 75 15 16 43 17 297 12 199
-4 306 -10 366 -21z m-1190 -186 c52 -5 160 -14 240 -20 362 -26 612 -87 1130
-272 827 -296 1141 -370 1510 -355 312 13 590 87 898 240 138 69 144 71 170
56 15 -8 28 -23 30 -33 5 -26 -18 -66 -38 -66 -9 0 -20 -4 -25 -9 -17 -15
-315 -147 -410 -181 -327 -115 -745 -145 -1100 -79 -273 51 -484 115 -1185
359 -448 156 -745 214 -1285 251 -333 23 -740 -17 -1040 -101 -60 -17 -245
-67 -410 -110 -165 -44 -329 -89 -365 -100 -87 -27 -126 -26 -141 2 -10 19 -8
25 17 44 58 47 124 74 248 104 70 16 227 59 349 94 390 113 546 139 1052 179
90 8 266 6 355 -3z m-2587 -150 c8 -37 35 -61 85 -76 l37 -11 -41 -12 c-48
-13 -71 -36 -80 -79 -7 -36 -19 -34 -29 5 -10 40 -33 62 -79 74 l-41 12 47 14
c47 13 78 48 78 88 0 27 17 16 23 -15z m2762 -240 c402 -38 801 -132 1415
-335 313 -103 402 -128 563 -155 59 -11 112 -22 117 -25 6 -3 10 -20 10 -36 0
-38 -27 -49 -127 -49 -97 0 -115 5 -653 175 -503 160 -645 200 -830 238 -273
57 -649 87 -1070 87 -287 0 -319 -2 -457 -26 -81 -14 -162 -28 -179 -31 -41
-7 -80 27 -65 56 21 38 175 79 381 100 122 12 765 13 895 1z m4921 -466 l45
-17 -36 -12 c-49 -18 -63 -31 -77 -77 l-12 -40 -13 38 c-17 48 -30 62 -77 78
l-37 13 44 17 c45 17 76 58 78 103 0 10 9 -5 20 -34 18 -46 25 -54 65 -69z
m-4485 -540 c100 -46 157 -124 166 -226 8 -87 -11 -143 -71 -204 -67 -67 -136
-94 -246 -94 l-80 0 6 -42 c4 -24 15 -70 25 -103 10 -33 19 -63 19 -67 0 -5
-39 -8 -86 -8 -78 0 -85 2 -79 18 3 9 15 53 26 97 27 116 28 439 0 546 -11 41
-23 82 -27 92 -6 18 1 19 147 15 130 -3 161 -7 200 -24z m-646 -5 c83 -23 128
-102 109 -192 l-9 -42 -53 -3 c-60 -3 -65 5 -27 50 28 34 32 66 10 107 -18 35
-64 55 -126 54 -62 -1 -109 -28 -133 -77 -16 -32 -17 -44 -7 -76 16 -54 63
-91 209 -164 187 -94 242 -150 242 -245 0 -59 -21 -102 -69 -143 -74 -63 -192
-85 -297 -53 -49 14 -99 56 -123 102 -14 27 -14 132 -1 167 9 24 14 26 70 26
69 0 73 -7 30 -56 -89 -102 -5 -233 141 -221 69 6 114 28 139 70 24 38 26 106
5 146 -23 45 -93 99 -185 143 -147 70 -208 121 -237 196 -13 35 -14 50 -5 80
31 103 186 167 317 131z m1119 1 c34 0 33 -2 -14 -129 -56 -154 -80 -473 -45
-613 4 -14 2 -29 -3 -32 -10 -6 -152 11 -160 19 -3 3 7 31 21 62 39 89 55 155
73 313 16 146 14 270 -6 339 -13 47 -5 54 54 47 28 -3 64 -6 80 -6z m385 -66
c184 -46 274 -141 273 -290 -1 -135 -93 -242 -226 -260 l-46 -7 33 -36 c39
-43 147 -213 147 -231 0 -8 -8 -10 -22 -7 -13 4 -42 9 -65 13 -24 3 -47 12
-53 19 -6 7 -20 45 -31 85 -11 40 -26 85 -35 101 -15 30 -67 62 -121 74 -33 6
-33 6 -34 -32 -1 -21 -1 -71 1 -112 2 -73 2 -74 -21 -68 -13 3 -50 11 -81 17
-32 6 -58 16 -58 21 0 6 11 30 25 54 42 71 73 160 107 309 27 118 32 161 31
264 l0 123 41 -7 c23 -3 83 -17 135 -30z m-2089 -97 c0 -35 7 -88 14 -118 22
-83 138 -328 201 -425 31 -47 56 -90 58 -96 2 -12 -132 -60 -150 -53 -9 3 -13
27 -13 72 0 37 -5 88 -11 113 -20 87 -198 456 -229 475 -6 4 -10 -86 -10 -239
0 -274 5 -304 66 -387 40 -55 42 -69 10 -69 -13 0 -43 -3 -68 -6 l-44 -6 -22
66 c-12 37 -33 84 -47 105 -71 113 -275 355 -275 327 0 -2 18 -92 40 -200 42
-205 63 -270 111 -349 16 -26 29 -49 29 -52 0 -5 -99 -35 -116 -35 -10 0 -13
28 -13 118 0 96 -7 150 -36 292 -54 267 -53 263 -123 299 -23 12 -42 25 -42
30 0 4 28 16 63 26 34 9 69 19 78 22 12 3 30 -16 64 -69 58 -89 277 -377 288
-378 4 0 7 87 8 193 1 105 4 232 8 282 l6 89 70 22 c39 12 73 20 78 17 4 -2 7
-32 7 -66z m3942 -3 c-17 -196 -14 -248 18 -409 43 -217 66 -304 106 -409 19
-49 31 -93 27 -97 -5 -4 -47 -11 -95 -15 -99 -8 -97 -9 -78 71 23 93 13 230
-30 434 -39 183 -84 347 -99 363 -5 6 -97 -441 -114 -556 -8 -51 12 -167 38
-224 14 -30 25 -58 25 -63 0 -10 -79 -10 -124 0 -29 6 -30 8 -43 96 -7 50 -19
109 -27 131 -23 69 -174 406 -201 449 l-24 40 -1 -271 c0 -277 6 -343 42 -452
11 -35 18 -66 14 -69 -3 -3 -38 -8 -77 -11 -72 -5 -72 -5 -66 19 3 13 15 65
27 114 17 74 22 132 27 330 3 145 1 270 -5 315 -10 71 -13 77 -56 117 -25 23
-46 46 -46 51 0 10 78 22 145 22 l40 0 37 -109 c33 -98 219 -534 225 -528 1 2
34 153 72 336 39 184 73 336 75 339 5 5 146 20 161 17 6 -1 9 -15 7 -31z
m-1173 -94 c101 -38 188 -73 192 -77 8 -8 -23 -178 -34 -190 -3 -3 -13 0 -23
5 -14 8 -18 24 -19 76 -1 76 -19 108 -81 143 -47 27 -94 29 -122 6 -17 -14
-97 -203 -89 -208 1 -1 21 -9 45 -18 65 -26 97 -22 123 14 15 22 24 28 32 20
8 -8 -1 -35 -33 -96 -51 -96 -75 -111 -64 -40 l6 45 -56 25 c-31 14 -58 25
-60 25 -5 0 -123 -318 -131 -352 -12 -49 71 -108 153 -108 39 0 90 30 123 71
31 40 56 49 65 26 7 -19 -74 -167 -92 -167 -30 0 -384 136 -384 147 0 7 16 34
35 59 57 74 81 121 135 264 57 149 80 239 80 317 0 42 7 83 14 83 0 0 84 -31
185 -70z m-3704 -33 c14 -98 55 -218 135 -388 90 -192 124 -248 204 -343 31
-36 56 -68 56 -71 0 -11 -151 -77 -165 -72 -6 3 -15 28 -19 56 -13 95 -55 217
-129 375 -96 201 -136 270 -208 351 -33 36 -59 68 -59 71 0 8 163 84 170 79 5
-3 11 -29 15 -58z m5477 -22 c33 -101 33 -105 3 -105 -18 0 -29 8 -37 28 -35
82 -100 120 -181 108 -87 -13 -100 -50 -73 -201 l12 -70 53 2 c63 3 89 21 93
66 2 21 9 33 21 35 15 3 17 -6 19 -62 4 -131 4 -131 -14 -134 -13 -3 -18 3
-18 20 0 50 -27 60 -113 44 -29 -5 -37 -11 -33 -24 3 -9 17 -91 31 -181 15
-91 31 -173 36 -183 23 -42 95 -45 171 -7 47 24 65 51 78 118 5 30 10 55 10
57 0 2 11 4 25 4 l26 0 -3 -97 -3 -98 -160 -27 c-88 -15 -181 -30 -207 -33
l-47 -7 6 124 c9 191 -36 437 -103 569 -13 27 -24 54 -24 62 0 10 50 22 183
44 100 17 191 30 202 29 16 -1 26 -18 47 -81z m-2822 -1680 c0 -47 42 -86 105
-98 14 -2 8 -7 -22 -16 -44 -12 -83 -51 -83 -82 0 -32 -17 -30 -24 3 -9 43
-31 66 -80 80 -29 8 -35 13 -21 15 63 12 105 51 105 98 0 8 5 15 10 15 6 0 10
-7 10 -15z"/>
<path d="M4911 4193 c-22 -56 -31 -139 -31 -301 l0 -165 73 5 c162 11 248 110
234 274 -7 89 -43 148 -116 186 -37 19 -68 28 -101 28 -43 0 -49 -3 -59 -27z"/>
<path d="M5931 4114 c-12 -9 -28 -28 -36 -44 -14 -26 -95 -372 -95 -404 0 -23
94 -38 158 -26 67 12 102 31 139 74 41 46 57 97 58 181 0 112 -54 189 -157
220 -40 12 -49 11 -67 -1z"/>
</g>
</svg>
